<?xml version="1.0" encoding="UTF-8"?>
<svg xmlns="http://www.w3.org/2000/svg" viewBox="0 0 233.1 44.55">
  <defs>
    <style>
      .cls-1, .cls-2 {
        fill: #eb5a37;
      }

      .cls-1, .cls-3 {
        mix-blend-mode: multiply;
      }

      .cls-4 {
        fill: #f5cc00;
      }

      .cls-5, .cls-3 {
        fill: #2e9099;
      }

      .cls-6 {
        isolation: isolate;
      }

      .cls-7, .cls-8 {
        fill: #2a3863;
      }

      .cls-8 {
        stroke: #1c355e;
        stroke-miterlimit: 10;
        stroke-width: .5px;
      }
    </style>
  </defs>
  <g class="cls-6">
    <g id="Layer_2" data-name="Layer 2">
      <g id="Layer_1-2" data-name="Layer 1">
        <g>
          <polygon class="cls-5" points="68.63 0 68.63 21.5 76.7 21.5 76.7 16.13 82.07 21.5 90.14 21.5 84.76 16.13 90.14 16.13 90.14 0 68.63 0"/>
          <rect class="cls-4" x="76.7" y="5.38" width="5.38" height="5.38"/>
          <rect class="cls-2" x="129.67" y="0" width="10.75" height="21.5"/>
          <path class="cls-5" d="M157.49,21.5h8.06v-5.38h5.38v5.38h8.06V0h-21.5v21.5ZM165.56,5.38h5.38v5.38h-5.38v-5.38Z"/>
          <rect class="cls-4" x="165.56" y="16.13" width="5.38" height="5.38"/>
          <rect class="cls-4" x="165.56" y="5.38" width="5.38" height="5.38"/>
          <polyline class="cls-7" points="101.84 21.5 112.59 21.5 112.59 10.75 101.84 10.75"/>
          <line class="cls-7" x1="101.84" y1="8.06" x2="101.84" y2="8.06"/>
          <polygon class="cls-7" points="107.21 0 101.84 8.06 112.59 8.06 107.21 0"/>
          <polygon class="cls-4" points="112.59 8.06 112.59 8.06 112.59 8.06 112.59 8.06"/>
          <polygon class="cls-4" points="101.84 8.06 101.84 8.06 101.84 8.06 101.84 8.06"/>
          <polygon class="cls-4" points="101.84 8.06 101.84 8.06 101.84 10.75 112.59 10.75 112.59 8.06 112.59 8.06 101.84 8.06"/>
          <polyline class="cls-5" points="222.35 21.5 233.1 21.5 233.1 10.75 222.35 10.75"/>
          <polygon class="cls-5" points="227.73 0 222.35 8.06 233.1 8.06 227.73 0"/>
          <polygon class="cls-4" points="233.1 8.06 233.1 8.06 233.1 8.06 233.1 8.06"/>
          <polygon class="cls-4" points="222.35 8.06 222.35 8.06 222.35 10.75 233.1 10.75 233.1 8.06 233.1 8.06 222.35 8.06"/>
          <line class="cls-7" x1="222.63" y1="8.06" x2="222.63" y2="8.06"/>
          <polygon class="cls-4" points="222.63 8.06 222.63 8.06 222.63 8.06 222.63 8.06"/>
          <polygon class="cls-2" points="35.43 0 35.43 21.5 56.93 21.5 56.93 16.13 46.18 16.13 46.18 13.44 56.93 13.44 56.93 8.06 46.18 8.06 46.18 5.38 56.93 5.38 56.93 0 35.43 0"/>
          <rect class="cls-2" x="46.18" y="5.38" width="10.75" height="2.69"/>
          <rect class="cls-4" x="46.18" y="5.38" width="10.75" height="2.69"/>
          <rect class="cls-2" x="46.18" y="13.44" width="10.75" height="2.69"/>
          <rect class="cls-4" x="46.18" y="13.44" width="10.75" height="2.69"/>
          <polygon class="cls-4" points="3.12 0 13.87 21.5 24.62 0 3.12 0"/>
          <polygon class="cls-5" points="17.9 0 13.87 8.06 9.84 0 .43 0 11.19 21.5 13.87 21.5 16.56 21.5 27.31 0 17.9 0"/>
          <rect class="cls-1" x="190.06" y="0" width="10.75" height="21.5"/>
          <rect class="cls-3" x="190.06" y="10.75" width="21.5" height="10.75"/>
          <polygon class="cls-3" points="140.42 0 124.29 0 124.29 10.75 140.42 10.75 145.79 10.75 145.79 0 140.42 0"/>
          <g>
            <path class="cls-8" d="M.25,35.44h1.42v8.73H.25v-8.73Z"/>
            <path class="cls-8" d="M20.95,35.44h.96l3.48,3.48,3.5-3.48h.94v8.73h-1.39v-6.43l-3.05,2.93-3.05-2.93v6.43h-1.39v-8.73Z"/>
            <path class="cls-8" d="M49.11,35.44h.96l3.48,3.48,3.5-3.48h.94v8.73h-1.39v-6.43l-3.05,2.93-3.05-2.93v6.43h-1.39v-8.73Z"/>
            <path class="cls-8" d="M77.09,39.81c0-2.47,2.06-4.49,4.53-4.49,2.66,0,4.51,1.82,4.51,4.49,0,2.45-2.06,4.49-4.51,4.49-2.66,0-4.53-1.82-4.53-4.49ZM84.69,39.81c0-1.77-1.29-3.21-3.07-3.21s-3.09,1.44-3.09,3.21,1.32,3.21,3.09,3.21,3.07-1.44,3.07-3.21Z"/>
            <path class="cls-8" d="M105.23,35.44h5.16c1.49,0,2.5,1.13,2.5,2.49,0,.72-.34,1.39-.84,1.85.53.46.89,1.13.89,1.9,0,1.37-.98,2.49-2.5,2.49h-5.21v-8.73ZM110.24,39.19c.74,0,1.25-.5,1.25-1.25s-.5-1.25-1.25-1.25h-3.6v2.49h3.6ZM110.31,42.93c.74,0,1.25-.5,1.25-1.25s-.5-1.25-1.25-1.25h-3.67v2.49h3.67Z"/>
            <path class="cls-8" d="M131.95,35.44h1.42v8.73h-1.42v-8.73Z"/>
            <path class="cls-8" d="M152.65,35.44h1.42v7.48h3.74v1.25h-5.16v-8.73Z"/>
            <path class="cls-8" d="M176.42,35.44h1.42v8.73h-1.42v-8.73Z"/>
            <path class="cls-8" d="M197.12,35.44h7.68v1.25h-6.26v2.49h6.17v1.25h-6.17v2.49h6.26v1.25h-7.68v-8.73Z"/>
            <path class="cls-8" d="M223.94,35.44h1.2l6.29,6.64v-6.64h1.42v8.73h-1.2l-6.29-6.64v6.64h-1.42v-8.73Z"/>
          </g>
        </g>
      </g>
    </g>
  </g>
</svg>